<svg width="80" height="80" viewBox="0 0 80 80" fill="none" xmlns="http://www.w3.org/2000/svg">
<path d="M24.5937 20.9141H55.4922C56.3672 20.9141 57.1641 21.4375 57.5078 22.2422L60.5625 29.3594H19.5234L22.5781 22.2422C22.9219 21.4375 23.7187 20.9141 24.5937 20.9141Z" fill="white"/>
<path d="M63.8906 31.5625H16.1953L20.5547 21.3828C21.25 19.7656 22.8281 18.7266 24.5859 18.7266H55.4844C57.2422 18.7266 58.8281 19.7734 59.5156 21.3906L63.8906 31.5625ZM22.8516 27.1719H57.2344L55.4922 23.1094H24.5937L22.8516 27.1719Z" fill="#333333"/>
<path d="M20.7577 32.9844H59.3359C60.5468 32.9844 61.5312 33.9687 61.5312 35.1797C61.5312 35.2578 61.5234 35.3359 61.5156 35.4062L58.3593 65.3672C58.2421 66.4844 57.2968 67.3281 56.1796 67.3281H23.914C22.789 67.3281 21.8515 66.4766 21.7343 65.3672L18.5781 35.4141C18.4531 34.2109 19.328 33.125 20.5312 33C20.6015 32.9922 20.6796 32.9844 20.7577 32.9844Z" fill="white"/>
<path d="M52.9532 67.3359H24.6486C23.1095 67.3359 21.8204 66.1719 21.6564 64.6406L18.672 36.3125C18.4845 34.5391 19.8751 32.9844 21.6642 32.9844H58.4298C60.2189 32.9844 61.6095 34.5312 61.422 36.3125L58.6954 62.1641C58.3829 65.1016 55.9064 67.3359 52.9532 67.3359ZM28.6017 62.9453H51.4923C53.0314 62.9453 54.3204 61.7812 54.4845 60.25L56.547 40.7031C56.7345 38.9297 55.3439 37.375 53.5548 37.375H26.5392C24.7501 37.375 23.3595 38.9219 23.547 40.7031L25.6095 60.25C25.7657 61.7812 27.0626 62.9453 28.6017 62.9453Z" fill="#333333"/>
<path d="M24.2188 46.7266H55.9531L55.1172 54.8203L24.9844 54.9531L24.2188 46.7266Z" fill="#F4CE26"/>
<path d="M23.1484 53.9453H55.7344V58.7734H23.1484V53.9453ZM23.1484 41.9844H57.6016V46.8125H23.1484V41.9844Z" fill="#333333"/>
<path d="M19.5234 29.3672H60.5625C62.5625 29.3672 64.1797 30.9922 64.1797 32.9844C64.1797 34.9844 62.5547 36.6016 60.5625 36.6016H19.5234C17.5234 36.6016 15.9062 34.9766 15.9062 32.9844C15.9062 30.9844 17.5234 29.3672 19.5234 29.3672Z" fill="#F4CE26"/>
<path d="M60.5625 38.8046H19.5234C16.3203 38.8046 13.7109 36.1953 13.7109 32.9921C13.7109 29.789 16.3203 27.1796 19.5234 27.1796H60.5625C63.7656 27.1796 66.375 29.789 66.375 32.9921C66.375 36.1953 63.7734 38.8046 60.5625 38.8046ZM19.5234 31.5625C18.7344 31.5625 18.0938 32.2031 18.0938 32.9921C18.0938 33.7812 18.7344 34.4218 19.5234 34.4218H60.5625C61.3516 34.4218 61.9922 33.7812 61.9922 32.9921C61.9922 32.2031 61.3516 31.5625 60.5625 31.5625H19.5234ZM27.9375 7.89839C29.1094 7.58589 30.3125 8.28121 30.625 9.45308L31.7578 13.6953C32.0703 14.8671 31.375 16.0703 30.2031 16.3828C29.0312 16.6953 27.8281 16 27.5156 14.8281L26.3828 10.5859C26.0703 9.41402 26.7656 8.21089 27.9375 7.89839ZM38.9062 7.89839C40.0781 7.58589 41.2813 8.28121 41.5938 9.45308L42.7266 13.6953C43.0391 14.8671 42.3438 16.0703 41.1719 16.3828C40 16.6953 38.7969 16 38.4844 14.8281L37.3516 10.5859C37.0469 9.41402 37.7422 8.21089 38.9062 7.89839ZM49.8828 7.89839C51.0547 7.58589 52.2578 8.28121 52.5703 9.45308L53.7031 13.6953C54.0156 14.8671 53.3203 16.0703 52.1484 16.3828C50.9766 16.6953 49.7734 16 49.4609 14.8281L48.3281 10.5859C48.0156 9.41402 48.7109 8.21089 49.8828 7.89839Z" fill="#333333"/>
</svg>
