<svg width="120" height="120" viewBox="0 0 120 120" fill="none" xmlns="http://www.w3.org/2000/svg">
<path fill-rule="evenodd" clip-rule="evenodd" d="M117.6 61.3637C117.6 57.1091 117.218 53.0182 116.509 49.0909H60V72.3H92.2909C90.9 79.8 86.6727 86.1546 80.3182 90.4091V105.464H99.7091C111.055 95.0182 117.6 79.6364 117.6 61.3637Z" fill="#4285F4"/>
<path fill-rule="evenodd" clip-rule="evenodd" d="M60 120C76.2 120 89.7818 114.627 99.7091 105.464L80.3182 90.4091C74.9455 94.0091 68.0727 96.1364 60 96.1364C44.3727 96.1364 31.1455 85.5818 26.4273 71.4H6.38184V86.9455C16.2546 106.555 36.5455 120 60 120Z" fill="#34A853"/>
<path fill-rule="evenodd" clip-rule="evenodd" d="M26.4273 71.4C25.2273 67.8 24.5455 63.9546 24.5455 60C24.5455 56.0455 25.2273 52.2 26.4273 48.6V33.0546H6.38182C2.31818 41.1546 0 50.3182 0 60C0 69.6818 2.31818 78.8455 6.38182 86.9455L26.4273 71.4Z" fill="#FBBC05"/>
<path fill-rule="evenodd" clip-rule="evenodd" d="M60 23.8636C68.8091 23.8636 76.7182 26.8909 82.9364 32.8364L100.145 15.6273C89.7546 5.94545 76.1728 0 60 0C36.5455 0 16.2546 13.4455 6.38184 33.0545L26.4273 48.6C31.1455 34.4182 44.3727 23.8636 60 23.8636Z" fill="#EA4335"/>
</svg>
