<svg width="347" height="37" viewBox="0 0 347 37" fill="none" xmlns="http://www.w3.org/2000/svg">
<path d="M2.56122 34C2.03322 34 1.58922 33.82 1.22922 33.46C0.869218 33.1 0.689218 32.656 0.689218 32.128V7.756C0.689218 7.204 0.869218 6.76 1.22922 6.424C1.58922 6.064 2.03322 5.884 2.56122 5.884H9.04122C10.8412 5.884 12.4372 6.268 13.8292 7.036C15.2212 7.78 16.3012 8.812 17.0692 10.132C17.8612 11.452 18.2572 12.988 18.2572 14.74C18.2572 16.372 17.8612 17.824 17.0692 19.096C16.3012 20.368 15.2212 21.364 13.8292 22.084C12.4372 22.804 10.8412 23.164 9.04122 23.164H4.43322V32.128C4.43322 32.656 4.25322 33.1 3.89322 33.46C3.55722 33.82 3.11322 34 2.56122 34ZM17.5012 34C17.1652 34 16.8532 33.928 16.5652 33.784C16.3012 33.64 16.0732 33.412 15.8812 33.1L9.40122 22.66L13.0372 21.616L18.9412 31.12C19.3732 31.816 19.4332 32.476 19.1212 33.1C18.8092 33.7 18.2692 34 17.5012 34ZM4.43322 19.708H9.04122C10.1452 19.708 11.1172 19.504 11.9572 19.096C12.7972 18.664 13.4572 18.076 13.9372 17.332C14.4172 16.564 14.6572 15.7 14.6572 14.74C14.6572 13.684 14.4172 12.748 13.9372 11.932C13.4572 11.116 12.7972 10.48 11.9572 10.024C11.1172 9.568 10.1452 9.34 9.04122 9.34H4.43322V19.708ZM32.7233 34.144C30.9713 34.144 29.3993 33.712 28.0073 32.848C26.6153 31.96 25.5113 30.772 24.6953 29.284C23.9033 27.772 23.5073 26.068 23.5073 24.172C23.5073 22.276 23.9393 20.572 24.8033 19.06C25.6913 17.548 26.8793 16.36 28.3673 15.496C29.8793 14.608 31.5713 14.164 33.4433 14.164C35.3153 14.164 36.9953 14.608 38.4833 15.496C39.9713 16.36 41.1473 17.548 42.0113 19.06C42.8993 20.572 43.3433 22.276 43.3433 24.172H41.9393C41.9393 26.068 41.5313 27.772 40.7153 29.284C39.9233 30.772 38.8313 31.96 37.4393 32.848C36.0473 33.712 34.4753 34.144 32.7233 34.144ZM33.4433 30.904C34.6673 30.904 35.7593 30.616 36.7193 30.04C37.6793 29.44 38.4353 28.636 38.9873 27.628C39.5393 26.596 39.8153 25.444 39.8153 24.172C39.8153 22.876 39.5393 21.724 38.9873 20.716C38.4353 19.684 37.6793 18.88 36.7193 18.304C35.7593 17.704 34.6673 17.404 33.4433 17.404C32.2433 17.404 31.1513 17.704 30.1673 18.304C29.2073 18.88 28.4393 19.684 27.8633 20.716C27.3113 21.724 27.0353 22.876 27.0353 24.172C27.0353 25.444 27.3113 26.596 27.8633 27.628C28.4393 28.636 29.2073 29.44 30.1673 30.04C31.1513 30.616 32.2433 30.904 33.4433 30.904ZM41.5073 34.036C40.9793 34.036 40.5353 33.868 40.1753 33.532C39.8393 33.172 39.6713 32.728 39.6713 32.2V26.692L40.3553 22.876L43.3433 24.172V32.2C43.3433 32.728 43.1633 33.172 42.8033 33.532C42.4673 33.868 42.0353 34.036 41.5073 34.036ZM66.8803 34.036C66.3523 34.036 65.9083 33.868 65.5483 33.532C65.2123 33.172 65.0443 32.728 65.0443 32.2V23.344C65.0443 21.976 64.7923 20.86 64.2883 19.996C63.7843 19.132 63.1003 18.496 62.2363 18.088C61.3963 17.656 60.4243 17.44 59.3203 17.44C58.3123 17.44 57.4003 17.644 56.5843 18.052C55.7683 18.46 55.1203 19.012 54.6403 19.708C54.1603 20.38 53.9203 21.16 53.9203 22.048H51.6523C51.6523 20.536 52.0123 19.192 52.7323 18.016C53.4763 16.816 54.4843 15.868 55.7563 15.172C57.0283 14.476 58.4563 14.128 60.0403 14.128C61.6963 14.128 63.1723 14.488 64.4683 15.208C65.7883 15.904 66.8203 16.936 67.5643 18.304C68.3323 19.672 68.7163 21.352 68.7163 23.344V32.2C68.7163 32.728 68.5363 33.172 68.1763 33.532C67.8403 33.868 67.4083 34.036 66.8803 34.036ZM52.0843 34.036C51.5563 34.036 51.1123 33.868 50.7523 33.532C50.4163 33.172 50.2483 32.728 50.2483 32.2V16.144C50.2483 15.592 50.4163 15.148 50.7523 14.812C51.1123 14.476 51.5563 14.308 52.0843 14.308C52.6363 14.308 53.0803 14.476 53.4163 14.812C53.7523 15.148 53.9203 15.592 53.9203 16.144V32.2C53.9203 32.728 53.7523 33.172 53.4163 33.532C53.0803 33.868 52.6363 34.036 52.0843 34.036ZM85.1553 34.144C83.2833 34.144 81.5913 33.712 80.0793 32.848C78.5913 31.96 77.4033 30.76 76.5153 29.248C75.6513 27.736 75.2193 26.032 75.2193 24.136C75.2193 22.24 75.6153 20.548 76.4073 19.06C77.2233 17.548 78.3273 16.36 79.7193 15.496C81.1113 14.608 82.6833 14.164 84.4353 14.164C85.8513 14.164 87.1593 14.464 88.3593 15.064C89.5593 15.64 90.5673 16.432 91.3833 17.44V7.72C91.3833 7.168 91.5513 6.724 91.8873 6.388C92.2473 6.052 92.6913 5.884 93.2193 5.884C93.7713 5.884 94.2153 6.052 94.5513 6.388C94.8873 6.724 95.0553 7.168 95.0553 7.72V24.136C95.0553 26.032 94.6113 27.736 93.7233 29.248C92.8593 30.76 91.6833 31.96 90.1953 32.848C88.7073 33.712 87.0273 34.144 85.1553 34.144ZM85.1553 30.904C86.3793 30.904 87.4713 30.616 88.4313 30.04C89.3913 29.44 90.1473 28.624 90.6993 27.592C91.2513 26.56 91.5273 25.408 91.5273 24.136C91.5273 22.84 91.2513 21.688 90.6993 20.68C90.1473 19.672 89.3913 18.88 88.4313 18.304C87.4713 17.704 86.3793 17.404 85.1553 17.404C83.9553 17.404 82.8633 17.704 81.8793 18.304C80.9193 18.88 80.1513 19.672 79.5753 20.68C79.0233 21.688 78.7473 22.84 78.7473 24.136C78.7473 25.408 79.0233 26.56 79.5753 27.592C80.1513 28.624 80.9193 29.44 81.8793 30.04C82.8633 30.616 83.9553 30.904 85.1553 30.904ZM111.908 34.144C109.964 34.144 108.248 33.724 106.76 32.884C105.272 32.02 104.096 30.844 103.232 29.356C102.392 27.844 101.972 26.116 101.972 24.172C101.972 22.204 102.392 20.476 103.232 18.988C104.096 17.476 105.272 16.3 106.76 15.46C108.248 14.596 109.964 14.164 111.908 14.164C113.828 14.164 115.532 14.596 117.02 15.46C118.508 16.3 119.672 17.476 120.512 18.988C121.376 20.476 121.808 22.204 121.808 24.172C121.808 26.116 121.388 27.844 120.548 29.356C119.708 30.844 118.544 32.02 117.056 32.884C115.568 33.724 113.852 34.144 111.908 34.144ZM111.908 30.904C113.156 30.904 114.26 30.616 115.22 30.04C116.18 29.464 116.924 28.672 117.452 27.664C118.004 26.656 118.28 25.492 118.28 24.172C118.28 22.852 118.004 21.688 117.452 20.68C116.924 19.648 116.18 18.844 115.22 18.268C114.26 17.692 113.156 17.404 111.908 17.404C110.66 17.404 109.556 17.692 108.596 18.268C107.636 18.844 106.88 19.648 106.328 20.68C105.776 21.688 105.5 22.852 105.5 24.172C105.5 25.492 105.776 26.656 106.328 27.664C106.88 28.672 107.636 29.464 108.596 30.04C109.556 30.616 110.66 30.904 111.908 30.904ZM154.561 34.036C154.033 34.036 153.589 33.868 153.229 33.532C152.893 33.172 152.725 32.728 152.725 32.2V21.904C152.725 20.392 152.353 19.276 151.609 18.556C150.865 17.812 149.893 17.44 148.693 17.44C147.445 17.44 146.413 17.872 145.597 18.736C144.805 19.6 144.409 20.704 144.409 22.048H141.421C141.421 20.488 141.757 19.12 142.429 17.944C143.101 16.744 144.037 15.808 145.237 15.136C146.461 14.464 147.853 14.128 149.413 14.128C150.781 14.128 151.993 14.428 153.049 15.028C154.105 15.628 154.921 16.516 155.497 17.692C156.097 18.844 156.397 20.248 156.397 21.904V32.2C156.397 32.728 156.229 33.172 155.893 33.532C155.557 33.868 155.113 34.036 154.561 34.036ZM130.549 34.036C130.021 34.036 129.577 33.868 129.217 33.532C128.881 33.172 128.713 32.728 128.713 32.2V16.18C128.713 15.628 128.881 15.184 129.217 14.848C129.577 14.512 130.021 14.344 130.549 14.344C131.101 14.344 131.545 14.512 131.881 14.848C132.217 15.184 132.385 15.628 132.385 16.18V32.2C132.385 32.728 132.217 33.172 131.881 33.532C131.545 33.868 131.101 34.036 130.549 34.036ZM142.573 34.036C142.045 34.036 141.601 33.868 141.241 33.532C140.905 33.172 140.737 32.728 140.737 32.2V21.904C140.737 20.392 140.365 19.276 139.621 18.556C138.877 17.812 137.905 17.44 136.705 17.44C135.457 17.44 134.425 17.872 133.609 18.736C132.793 19.6 132.385 20.704 132.385 22.048H130.117C130.117 20.488 130.429 19.12 131.053 17.944C131.677 16.744 132.541 15.808 133.645 15.136C134.749 14.464 136.009 14.128 137.425 14.128C138.793 14.128 140.005 14.428 141.061 15.028C142.117 15.628 142.933 16.516 143.509 17.692C144.109 18.844 144.409 20.248 144.409 21.904V32.2C144.409 32.728 144.241 33.172 143.905 33.532C143.569 33.868 143.125 34.036 142.573 34.036ZM188.885 34.36C186.941 34.36 185.117 34 183.413 33.28C181.733 32.536 180.257 31.516 178.985 30.22C177.737 28.9 176.753 27.364 176.033 25.612C175.337 23.86 174.989 21.964 174.989 19.924C174.989 17.908 175.337 16.036 176.033 14.308C176.753 12.556 177.737 11.032 178.985 9.736C180.257 8.416 181.733 7.384 183.413 6.64C185.093 5.896 186.917 5.524 188.885 5.524C190.733 5.524 192.317 5.764 193.637 6.244C194.981 6.724 196.325 7.516 197.669 8.62C197.861 8.764 198.005 8.92 198.101 9.088C198.221 9.232 198.293 9.388 198.317 9.556C198.365 9.7 198.389 9.88 198.389 10.096C198.389 10.552 198.221 10.936 197.885 11.248C197.573 11.536 197.189 11.704 196.733 11.752C196.277 11.776 195.833 11.62 195.401 11.284C194.513 10.516 193.589 9.928 192.629 9.52C191.693 9.112 190.445 8.908 188.885 8.908C187.469 8.908 186.137 9.196 184.889 9.772C183.641 10.348 182.537 11.14 181.577 12.148C180.641 13.156 179.909 14.332 179.381 15.676C178.853 16.996 178.589 18.412 178.589 19.924C178.589 21.46 178.853 22.9 179.381 24.244C179.909 25.564 180.641 26.728 181.577 27.736C182.537 28.744 183.641 29.536 184.889 30.112C186.137 30.664 187.469 30.94 188.885 30.94C190.109 30.94 191.261 30.736 192.341 30.328C193.445 29.896 194.501 29.308 195.509 28.564C195.941 28.252 196.361 28.12 196.769 28.168C197.201 28.192 197.561 28.36 197.849 28.672C198.137 28.96 198.281 29.368 198.281 29.896C198.281 30.136 198.233 30.376 198.137 30.616C198.041 30.832 197.897 31.036 197.705 31.228C196.409 32.26 195.017 33.04 193.529 33.568C192.065 34.096 190.517 34.36 188.885 34.36ZM212.836 34.144C210.892 34.144 209.176 33.724 207.688 32.884C206.2 32.02 205.024 30.844 204.16 29.356C203.32 27.844 202.9 26.116 202.9 24.172C202.9 22.204 203.32 20.476 204.16 18.988C205.024 17.476 206.2 16.3 207.688 15.46C209.176 14.596 210.892 14.164 212.836 14.164C214.756 14.164 216.46 14.596 217.948 15.46C219.436 16.3 220.6 17.476 221.44 18.988C222.304 20.476 222.736 22.204 222.736 24.172C222.736 26.116 222.316 27.844 221.476 29.356C220.636 30.844 219.472 32.02 217.984 32.884C216.496 33.724 214.78 34.144 212.836 34.144ZM212.836 30.904C214.084 30.904 215.188 30.616 216.148 30.04C217.108 29.464 217.852 28.672 218.38 27.664C218.932 26.656 219.208 25.492 219.208 24.172C219.208 22.852 218.932 21.688 218.38 20.68C217.852 19.648 217.108 18.844 216.148 18.268C215.188 17.692 214.084 17.404 212.836 17.404C211.588 17.404 210.484 17.692 209.524 18.268C208.564 18.844 207.808 19.648 207.256 20.68C206.704 21.688 206.428 22.852 206.428 24.172C206.428 25.492 206.704 26.656 207.256 27.664C207.808 28.672 208.564 29.464 209.524 30.04C210.484 30.616 211.588 30.904 212.836 30.904ZM231.765 34C231.309 34 230.901 33.832 230.541 33.496C230.181 33.16 230.001 32.716 230.001 32.164V14.416C230.001 12.688 230.337 11.188 231.009 9.916C231.705 8.644 232.665 7.66 233.889 6.964C235.113 6.244 236.529 5.884 238.137 5.884C238.665 5.884 239.097 6.04 239.433 6.352C239.793 6.664 239.973 7.06 239.973 7.54C239.973 7.996 239.793 8.392 239.433 8.728C239.097 9.04 238.665 9.196 238.137 9.196C237.249 9.196 236.469 9.4 235.797 9.808C235.125 10.216 234.597 10.78 234.213 11.5C233.853 12.22 233.673 13.072 233.673 14.056V32.164C233.673 32.716 233.505 33.16 233.169 33.496C232.833 33.832 232.365 34 231.765 34ZM228.453 18.124C227.949 18.124 227.541 17.98 227.229 17.692C226.917 17.404 226.761 17.044 226.761 16.612C226.761 16.132 226.917 15.748 227.229 15.46C227.541 15.172 227.949 15.028 228.453 15.028H237.345C237.849 15.028 238.257 15.172 238.569 15.46C238.881 15.748 239.037 16.132 239.037 16.612C239.037 17.044 238.881 17.404 238.569 17.692C238.257 17.98 237.849 18.124 237.345 18.124H228.453ZM244.977 34C244.521 34 244.113 33.832 243.753 33.496C243.393 33.16 243.213 32.716 243.213 32.164V14.416C243.213 12.688 243.549 11.188 244.221 9.916C244.917 8.644 245.877 7.66 247.101 6.964C248.325 6.244 249.741 5.884 251.349 5.884C251.877 5.884 252.309 6.04 252.645 6.352C253.005 6.664 253.185 7.06 253.185 7.54C253.185 7.996 253.005 8.392 252.645 8.728C252.309 9.04 251.877 9.196 251.349 9.196C250.461 9.196 249.681 9.4 249.009 9.808C248.337 10.216 247.809 10.78 247.425 11.5C247.065 12.22 246.885 13.072 246.885 14.056V32.164C246.885 32.716 246.717 33.16 246.381 33.496C246.045 33.832 245.577 34 244.977 34ZM241.665 18.124C241.161 18.124 240.753 17.98 240.441 17.692C240.129 17.404 239.973 17.044 239.973 16.612C239.973 16.132 240.129 15.748 240.441 15.46C240.753 15.172 241.161 15.028 241.665 15.028H250.557C251.061 15.028 251.469 15.172 251.781 15.46C252.093 15.748 252.249 16.132 252.249 16.612C252.249 17.044 252.093 17.404 251.781 17.692C251.469 17.98 251.061 18.124 250.557 18.124H241.665ZM266.067 34.144C264.075 34.144 262.299 33.724 260.739 32.884C259.203 32.02 257.991 30.844 257.103 29.356C256.239 27.844 255.807 26.116 255.807 24.172C255.807 22.204 256.215 20.476 257.031 18.988C257.871 17.476 259.023 16.3 260.487 15.46C261.951 14.596 263.631 14.164 265.527 14.164C267.399 14.164 269.007 14.584 270.351 15.424C271.695 16.24 272.715 17.38 273.411 18.844C274.131 20.284 274.491 21.952 274.491 23.848C274.491 24.304 274.335 24.688 274.023 25C273.711 25.288 273.315 25.432 272.835 25.432H258.327V22.552H272.727L271.251 23.56C271.227 22.36 270.987 21.292 270.531 20.356C270.075 19.396 269.427 18.64 268.587 18.088C267.747 17.536 266.727 17.26 265.527 17.26C264.159 17.26 262.983 17.56 261.999 18.16C261.039 18.76 260.307 19.588 259.803 20.644C259.299 21.676 259.047 22.852 259.047 24.172C259.047 25.492 259.347 26.668 259.947 27.7C260.547 28.732 261.375 29.548 262.431 30.148C263.487 30.748 264.699 31.048 266.067 31.048C266.811 31.048 267.567 30.916 268.335 30.652C269.127 30.364 269.763 30.04 270.243 29.68C270.603 29.416 270.987 29.284 271.395 29.284C271.827 29.26 272.199 29.38 272.511 29.644C272.919 30.004 273.135 30.4 273.159 30.832C273.183 31.264 272.991 31.636 272.583 31.948C271.767 32.596 270.747 33.124 269.523 33.532C268.323 33.94 267.171 34.144 266.067 34.144ZM289.163 34.144C287.171 34.144 285.395 33.724 283.835 32.884C282.299 32.02 281.087 30.844 280.199 29.356C279.335 27.844 278.903 26.116 278.903 24.172C278.903 22.204 279.311 20.476 280.127 18.988C280.967 17.476 282.119 16.3 283.583 15.46C285.047 14.596 286.727 14.164 288.623 14.164C290.495 14.164 292.103 14.584 293.447 15.424C294.791 16.24 295.811 17.38 296.507 18.844C297.227 20.284 297.587 21.952 297.587 23.848C297.587 24.304 297.431 24.688 297.119 25C296.807 25.288 296.411 25.432 295.931 25.432H281.423V22.552H295.823L294.347 23.56C294.323 22.36 294.083 21.292 293.627 20.356C293.171 19.396 292.523 18.64 291.683 18.088C290.843 17.536 289.823 17.26 288.623 17.26C287.255 17.26 286.079 17.56 285.095 18.16C284.135 18.76 283.403 19.588 282.899 20.644C282.395 21.676 282.143 22.852 282.143 24.172C282.143 25.492 282.443 26.668 283.043 27.7C283.643 28.732 284.471 29.548 285.527 30.148C286.583 30.748 287.795 31.048 289.163 31.048C289.907 31.048 290.663 30.916 291.431 30.652C292.223 30.364 292.859 30.04 293.339 29.68C293.699 29.416 294.083 29.284 294.491 29.284C294.923 29.26 295.295 29.38 295.607 29.644C296.015 30.004 296.231 30.4 296.255 30.832C296.279 31.264 296.087 31.636 295.679 31.948C294.863 32.596 293.843 33.124 292.619 33.532C291.419 33.94 290.267 34.144 289.163 34.144ZM310.911 36.52H346.911V0.52H310.911V36.52Z" fill="black"/>
</svg>
